<?xml version="1.0" standalone="no"?><!DOCTYPE svg PUBLIC "-//W3C//DTD SVG 1.1//EN" "http://www.w3.org/Graphics/SVG/1.1/DTD/svg11.dtd"><svg t="1548937258971" class="icon" style="" viewBox="0 0 1024 1024" version="1.1" xmlns="http://www.w3.org/2000/svg" p-id="2542" xmlns:xlink="http://www.w3.org/1999/xlink" width="32" height="32"><defs><style type="text/css"></style></defs><path d="M872 864H152C68.2 864 0 795.8 0 712V312c0-83.8 68.2-152 152-152h720c83.8 0 152 68.2 152 152v400c0 83.8-68.2 152-152 152zM152 224c-48.5 0-88 39.5-88 88v400c0 48.5 39.5 88 88 88h720c48.5 0 88-39.5 88-88V312c0-48.5-39.5-88-88-88H152z" fill="#2c2c2c" p-id="2543"></path><path d="M340.2 612.2L121.3 831.1c-15.5 15.5-41 15.5-56.5 0s-15.5-41 0-56.5l218.9-218.9c15.5-15.5 41-15.5 56.5 0 15.6 15.5 15.6 41 0 56.5zM684.3 612.2l218.9 218.9c15.5 15.5 41 15.5 56.5 0s15.5-41 0-56.5L740.9 555.7c-15.5-15.5-41-15.5-56.5 0-15.6 15.5-15.6 41-0.1 56.5zM512 644.8c-38.9 0-77.8-14.8-107.5-44.4l-355-355.1L94.7 200l355.1 355.1c34.3 34.3 90.1 34.3 124.5 0l355-355.1 45.3 45.3-355.1 355.1c-29.7 29.6-68.6 44.4-107.5 44.4z" fill="#2c2c2c" p-id="2544"></path></svg>